<svg id="Layer_1" data-name="Layer 1" xmlns="http://www.w3.org/2000/svg" viewBox="0 0 546.71 581.94"><defs><style>.cls-1{fill:#faf7ef;}.cls-2{fill:#febf10;}</style></defs><polygon class="cls-1" points="67.09 490.37 74.06 503.07 50.75 545.2 36.74 545.2 67.09 490.37"/><polygon class="cls-1" points="118.4 545.2 104.39 545.2 77.57 496.74 70.57 484.09 77.56 471.45 77.57 471.44 84.57 484.09 118.4 545.2"/><polygon class="cls-1" points="182.47 471.68 182.47 544.87 171.87 534.26 134.73 497.12 134.73 497.12 124.13 486.52 124.13 471.53 171.87 519.27 171.87 471.68 182.47 471.68"/><polygon class="cls-1" points="124.13 494.02 134.73 504.62 134.73 545.2 124.13 545.2 124.13 494.02"/><rect class="cls-1" x="193.06" y="471.71" width="65.57" height="10.6"/><rect class="cls-1" x="219.97" y="487.62" width="10.6" height="57.59"/><polygon class="cls-1" points="281.3 490.37 288.26 503.07 264.95 545.2 250.95 545.2 281.3 490.37"/><polygon class="cls-1" points="332.6 545.2 318.6 545.2 291.77 496.74 284.77 484.09 291.77 471.45 291.77 471.44 298.78 484.09 332.6 545.2"/><path class="cls-1" d="M394.17,471.42v55.94a37.22,37.22,0,0,1-10.6,11.29,36.84,36.84,0,0,1-45.24-2.53v-21.8h10.6v16.46a26.26,26.26,0,0,0,34.64-6.67V471.42Z"/><rect class="cls-1" x="404.72" y="471.55" width="10.6" height="73.65"/><rect class="cls-1" x="404.72" y="471.55" width="10.6" height="73.65"/><rect class="cls-1" x="405.07" y="471.9" width="9.89" height="72.94"/><polygon class="cls-1" points="458.66 490.37 465.63 503.07 442.32 545.2 428.31 545.2 458.66 490.37"/><polygon class="cls-1" points="509.96 545.2 495.96 545.2 469.13 496.74 462.14 484.09 469.13 471.45 469.13 471.44 476.14 484.09 509.96 545.2"/><polygon class="cls-2" points="509.96 434.68 311.67 434.68 311.67 358.05 377.26 358.05 311.67 244.46 296.35 217.92 281.02 191.37 281.02 38.13 296.35 64.68 311.67 91.22 317.6 101.48 465.73 358.05 509.96 434.68"/><polygon class="cls-1" points="265.69 38.13 265.69 191.38 250.37 217.92 235.04 244.47 169.46 358.05 235.04 358.05 235.04 434.68 36.74 434.68 80.98 358.05 229.12 101.48 235.04 91.22 250.37 64.66 265.69 38.13"/></svg>