<svg id="Layer_1" data-name="Layer 1" xmlns="http://www.w3.org/2000/svg" viewBox="0 0 1191.83 296.13"><defs><style>.cls-1{fill:#231f20;}.cls-2{fill:#192e57;}.cls-3{fill:#fdbf14;}</style></defs><path class="cls-1" d="M380.29,151.88l.2.17H339.64v45.81H325.46V99.59h54.2l0,0a26.19,26.19,0,0,1,.66,52.26Zm9.94-26.1a12,12,0,0,0-12-12,8.12,8.12,0,0,0-.86,0H339.64v24h38.58A12,12,0,0,0,390.23,125.78Z"/><path class="cls-1" d="M510,197.86H493.39L465.06,151.4l-.77-1.27-.18.05-.76.2-.25.07-1.1.26c-.84.2-1.69.37-2.54.51-.24.05-.48.09-.73.12l-.39.06-.95.14-.41.05-1,.11c-.41.05-.82.08-1.23.11h0l-1.14.07h-.21l-.83,0h-19.8v45.91H418.54V99.28h81.52c.08,1.15.13,2.31.13,3.48a49.21,49.21,0,0,1-14.65,35c-.61.6-1.24,1.19-1.89,1.76l-.65.57-.08.08-.86.71-.62.5-.45.34c-.54.43-1.09.83-1.65,1.23l-.8.55-.05,0-.75.5-.13.08-.27.17,1.7,2.8Zm-34.42-70.17a34.93,34.93,0,0,0,8.76-14.23H432.72v24.32H451a34.81,34.81,0,0,0,24.6-10.09Z"/><path class="cls-1" d="M555.48,99.47a49.2,49.2,0,1,1-49.19,49.19A49.19,49.19,0,0,1,555.48,99.47Zm-35,49.19a35,35,0,1,0,35-35A35.06,35.06,0,0,0,520.46,148.66Z"/><path class="cls-1" d="M604.09,113.76V99.58h87.69v14.18Zm36,84.1v-77h14.18v77Z"/><path class="cls-1" d="M722.1,124.53l9.32,17-31.18,56.34H681.51Zm68.61,73.33H772l-35.87-64.81-9.36-16.92,9.36-16.91h0l9.37,16.92Z"/><path class="cls-1" d="M880,155.78a28.13,28.13,0,0,1-24.43,42.08H824.92a28.17,28.17,0,0,1-28.17-27.4h14.19a14,14,0,0,0,14,13.22h30.63a13.95,13.95,0,1,0,0-27.9H824.88a28,28,0,0,1-20.18-8.53,28.35,28.35,0,0,1-4.25-5.65,28.13,28.13,0,0,1,24.43-42.08h31.36A28.17,28.17,0,0,1,880,113.69a0,0,0,0,1,0,0,28,28,0,0,1,3.7,13.21H869.48A14,14,0,0,0,856,113.7H824.88a13.95,13.95,0,0,0-1.39,27.83c.48,0,1,0,1.43,0,.83,0,1.64,0,2.45.11h28.18A28.13,28.13,0,0,1,880,155.78Z"/><path class="cls-1" d="M985.58,197.86H965.53l-39.12-39.12L912,173.16v24.7H897.82V167.21L912,153v.09l11.66-11.66,41.87-41.88h20.05l-49.13,49.14Zm-74.24-54.19-13.52,13.52V99.58H912V143Z"/><path class="cls-1" d="M1076.11,183.68v14.18H999.62V98.8h14.18v84.88Z"/><path class="cls-1" d="M1142.5,99.28l-35,47.83-1,1.45-.06.07-1.33,1.83-.34.46v46.94h-14.18V151l-.36-.5-1.33-1.83,0-.07-1.06-1.45-35-47.83h17.56l27.32,37.33v0l27.31-37.31Z"/><polygon class="cls-2" points="249.93 99.72 176.06 57.07 176.04 57.06 162.78 49.4 157.09 52.69 134.42 65.78 133.73 66.17 157.09 79.66 210.8 110.67 218.04 114.85 207.92 120.69 182.46 135.39 157.09 150.03 101.83 118.13 96.13 121.42 78.46 131.62 144.35 169.66 157.09 177.01 162.77 180.3 270.44 118.13 276.13 114.85 249.93 99.72"/><polygon class="cls-3" points="220.74 161.34 220.73 161.34 210.86 178.44 199.79 197.6 194.26 188.03 185.21 193.26 174.03 199.71 175.43 202.12 199.79 244.32 213.28 220.96 251.32 155.08 261.19 137.99 263 134.85 222.54 158.21 220.74 161.34"/><polygon class="cls-2" points="72.69 128.38 72.77 128.34 96.13 114.84 96.14 114.84 107.15 108.48 146.98 85.5 151.39 82.95 128.03 69.46 123.62 72.01 123.61 72.01 52.59 113.02 49.33 114.89 49.33 133.93 49.33 148.44 49.33 233.31 57.12 237.81 72.69 246.8 72.69 142.8 72.69 141.43 72.69 134.96 72.78 134.91 72.69 134.85 72.69 128.38"/></svg>