<svg id="Layer_1" data-name="Layer 1" xmlns="http://www.w3.org/2000/svg" viewBox="0 0 1166.41 618"><defs><style>.cls-1,.cls-2{fill:none;stroke:#000;stroke-miterlimit:10;stroke-width:0.8px;}.cls-1{stroke-dasharray:11.9 11.9;}.cls-3{fill:#231f20;}.cls-4{fill:#192e57;}.cls-5{fill:#fdbf14;}</style></defs><line class="cls-1" x1="-6.21" x2="963.93"/><line class="cls-2" x1="969.88" x2="975.88"/><path class="cls-3" d="M107,522.89l.27.23h-55V584.8H33.21V452.49h73l-.05.05a35.25,35.25,0,0,1,.89,70.35Zm13.39-35.14a16.19,16.19,0,0,0-16.17-16.17c-.39,0-.78,0-1.16,0l-.25,0H52.3v32.28h51.94A16.19,16.19,0,0,0,120.41,487.75Z"/><path class="cls-3" d="M281.65,584.8H259.29l-38.13-62.55-1-1.71-.23.07c-.35.09-.68.19-1,.27l-.33.09-1.49.35q-1.69.39-3.42.69c-.33.06-.65.12-1,.16l-.52.08c-.43.07-.85.13-1.28.18l-.55.07c-.46.06-.91.11-1.37.15s-1.1.11-1.66.15h-.05c-.51,0-1,.07-1.54.09h-.27l-1.12.05-.7,0h-26V584.8H158.52V452.08H268.28c.1,1.55.16,3.11.16,4.68a66.1,66.1,0,0,1-19.72,47.14c-.82.82-1.67,1.61-2.54,2.38l-.88.77-.11.1-1.16,1c-.27.23-.55.45-.83.67l-.6.47c-.73.56-1.47,1.11-2.23,1.65l-1.08.74a.15.15,0,0,1-.06,0c-.33.23-.67.45-1,.67l-.17.1c-.12.09-.25.16-.37.24l2.3,3.77Zm-46.34-94.48a47.08,47.08,0,0,0,11.8-19.15H177.6V503.9h24.6a46.82,46.82,0,0,0,33.11-13.58Z"/><path class="cls-3" d="M342.89,452.33a66.24,66.24,0,1,1-66.24,66.23A66.22,66.22,0,0,1,342.89,452.33Zm-47.15,66.23a47.15,47.15,0,1,0,47.15-47.14A47.2,47.2,0,0,0,295.74,518.56Z"/><path class="cls-3" d="M408.33,471.57V452.48H526.39v19.09ZM456.8,584.8V481.11h19.08V584.8Z"/><path class="cls-3" d="M567.22,486.07,579.76,509l-42,75.85H512.57Zm92.37,98.73H634.37l-48.3-87.26-12.6-22.78L586.07,452v0l12.62,22.78Z"/><path class="cls-3" d="M779.76,528.14a37.88,37.88,0,0,1-32.89,56.66H705.64a37.94,37.94,0,0,1-37.93-36.89h19.11a18.87,18.87,0,0,0,18.82,17.8h41.23a18.79,18.79,0,0,0,0-37.57H705.58a37.76,37.76,0,0,1-27.16-11.48,38.37,38.37,0,0,1-5.73-7.6,37.88,37.88,0,0,1,32.89-56.66H747.8a38,38,0,0,1,32,19.07s0,0,0,0a37.84,37.84,0,0,1,5,17.79H765.63a18.85,18.85,0,0,0-18.12-17.79H705.58A18.78,18.78,0,0,0,703.72,509c.64,0,1.28,0,1.92,0,1.11,0,2.21,0,3.29.15h37.94A37.85,37.85,0,0,1,779.76,528.14Z"/><path class="cls-3" d="M921.94,584.8h-27l-52.66-52.67-19.41,19.42V584.8H803.78V543.53l19.09-19.08v.11l15.69-15.69,56.38-56.39h27l-66.15,66.15Zm-100-73-18.21,18.21V452.48h19.09V511Z"/><path class="cls-3" d="M1043.82,565.71V584.8h-103V451.43h19.09V565.71Z"/><path class="cls-3" d="M1133.2,452.07l-47.11,64.41-1.43,1.94-.07.09-1.8,2.48-.45.61v63.2h-19.09V521.65l-.48-.66-1.8-2.48-.07-.09-1.43-1.94-47.11-64.41H1036l36.78,50.26,0,0,36.77-50.24Z"/><polygon class="cls-4" points="724.17 114.56 604.75 45.6 604.73 45.58 583.28 33.21 574.08 38.52 537.43 59.68 536.31 60.33 574.08 82.12 660.91 132.26 672.62 139.03 656.27 148.46 615.1 172.23 574.08 195.9 484.75 144.33 475.54 149.64 446.97 166.13 553.48 227.63 574.08 239.52 583.27 244.83 757.34 144.33 766.54 139.02 724.17 114.56"/><polygon class="cls-5" points="676.98 214.19 676.97 214.19 661.01 241.83 643.13 272.81 634.18 257.32 619.54 265.78 601.48 276.2 603.73 280.11 643.13 348.33 664.93 310.57 726.42 204.06 742.37 176.43 745.3 171.36 679.9 209.12 676.98 214.19"/><polygon class="cls-4" points="437.64 160.9 437.76 160.82 475.54 139.01 475.55 139.01 493.35 128.73 557.74 91.56 564.87 87.44 527.1 65.64 519.97 69.76 519.96 69.76 405.14 136.05 399.87 139.09 399.87 169.86 399.87 193.32 399.87 330.54 412.47 337.81 437.64 352.34 437.64 184.21 437.64 181.99 437.64 171.53 437.77 171.44 437.64 171.36 437.64 160.9"/></svg>