<svg id="Layer_1" data-name="Layer 1" xmlns="http://www.w3.org/2000/svg" viewBox="0 0 275.45 239.74"><defs><style>.cls-1{fill:#faf7ef;}.cls-2{fill:#fdbf14;}</style></defs><polygon class="cls-1" points="243.63 61.11 153.91 9.31 153.9 9.3 137.78 0 130.87 3.99 103.34 19.89 102.5 20.37 130.87 36.75 196.1 74.41 204.9 79.5 192.61 86.58 161.69 104.44 130.87 122.22 63.76 83.48 56.84 87.47 35.38 99.86 115.4 146.06 130.87 154.99 137.78 158.98 268.54 83.48 275.45 79.49 243.63 61.11"/><polygon class="cls-2" points="208.17 135.96 208.17 135.96 196.18 156.72 182.74 180 176.02 168.36 165.02 174.72 151.46 182.55 153.15 185.48 182.74 236.74 199.12 208.37 245.31 128.35 257.3 107.59 259.5 103.79 210.36 132.16 208.17 135.96"/><polygon class="cls-1" points="28.37 95.93 28.47 95.87 56.84 79.48 56.85 79.48 70.22 71.76 118.59 43.84 123.95 40.74 95.58 24.36 90.22 27.46 90.22 27.46 3.95 77.26 0 79.54 0 102.66 0 120.29 0 223.37 9.46 228.83 28.37 239.74 28.37 113.44 28.37 111.77 28.37 103.91 28.47 103.85 28.37 103.79 28.37 95.93"/></svg>